<mxfile host="app.diagrams.net" agent="Mozilla/5.0 (Windows NT 10.0; Win64; x64) AppleWebKit/537.36 (KHTML, like Gecko) Chrome/134.0.0.0 Safari/537.36" version="26.1.1">
  <diagram name="Страница — 1" id="8WWrkacleiQ1a6C7oU4b">
    <mxGraphModel grid="1" page="1" gridSize="10" guides="1" tooltips="1" connect="1" arrows="1" fold="1" pageScale="1" pageWidth="827" pageHeight="1169" math="0" shadow="0">
      <root>
        <mxCell id="0" />
        <mxCell id="1" parent="0" />
        <mxCell id="nVaTApkPD_jfvOoo125z-8" style="edgeStyle=orthogonalEdgeStyle;rounded=0;orthogonalLoop=1;jettySize=auto;html=1;exitX=1;exitY=0.5;exitDx=0;exitDy=0;entryX=0;entryY=0.5;entryDx=0;entryDy=0;" edge="1" parent="1" source="nVaTApkPD_jfvOoo125z-1" target="nVaTApkPD_jfvOoo125z-7">
          <mxGeometry relative="1" as="geometry" />
        </mxCell>
        <mxCell id="nVaTApkPD_jfvOoo125z-9" value="&lt;div&gt;[если авторизован]&lt;/div&gt;Создать&lt;br&gt;объявление" style="edgeLabel;html=1;align=center;verticalAlign=middle;resizable=0;points=[];" connectable="0" vertex="1" parent="nVaTApkPD_jfvOoo125z-8">
          <mxGeometry x="0.06" y="1" relative="1" as="geometry">
            <mxPoint x="-4" y="-20" as="offset" />
          </mxGeometry>
        </mxCell>
        <mxCell id="nVaTApkPD_jfvOoo125z-31" style="edgeStyle=orthogonalEdgeStyle;rounded=0;orthogonalLoop=1;jettySize=auto;html=1;exitX=0.75;exitY=0;exitDx=0;exitDy=0;entryX=0;entryY=0.5;entryDx=0;entryDy=0;" edge="1" parent="1" source="nVaTApkPD_jfvOoo125z-1" target="nVaTApkPD_jfvOoo125z-30">
          <mxGeometry relative="1" as="geometry">
            <Array as="points">
              <mxPoint x="190" y="35" />
            </Array>
          </mxGeometry>
        </mxCell>
        <mxCell id="nVaTApkPD_jfvOoo125z-32" value="&lt;div&gt;[если не авторизован]&lt;/div&gt;Перейти к модулю&lt;div&gt;авторизации&lt;/div&gt;" style="edgeLabel;html=1;align=center;verticalAlign=middle;resizable=0;points=[];" connectable="0" vertex="1" parent="nVaTApkPD_jfvOoo125z-31">
          <mxGeometry x="0.0857" y="1" relative="1" as="geometry">
            <mxPoint x="10" y="-24" as="offset" />
          </mxGeometry>
        </mxCell>
        <mxCell id="nVaTApkPD_jfvOoo125z-1" value="Объявление с жильем отсутствует" style="rounded=1;whiteSpace=wrap;html=1;" vertex="1" parent="1">
          <mxGeometry x="100" y="80" width="120" height="60" as="geometry" />
        </mxCell>
        <mxCell id="nVaTApkPD_jfvOoo125z-12" style="edgeStyle=orthogonalEdgeStyle;rounded=0;orthogonalLoop=1;jettySize=auto;html=1;exitX=0.5;exitY=0;exitDx=0;exitDy=0;entryX=0.5;entryY=0;entryDx=0;entryDy=0;" edge="1" parent="1" source="nVaTApkPD_jfvOoo125z-2" target="nVaTApkPD_jfvOoo125z-7">
          <mxGeometry relative="1" as="geometry">
            <Array as="points">
              <mxPoint x="690" y="50" />
              <mxPoint x="400" y="50" />
            </Array>
          </mxGeometry>
        </mxCell>
        <mxCell id="nVaTApkPD_jfvOoo125z-19" style="edgeStyle=orthogonalEdgeStyle;rounded=0;orthogonalLoop=1;jettySize=auto;html=1;exitX=1;exitY=0.5;exitDx=0;exitDy=0;entryX=1;entryY=0.5;entryDx=0;entryDy=0;" edge="1" parent="1" source="nVaTApkPD_jfvOoo125z-2" target="nVaTApkPD_jfvOoo125z-5">
          <mxGeometry relative="1" as="geometry" />
        </mxCell>
        <mxCell id="nVaTApkPD_jfvOoo125z-20" value="Одобрено&lt;div&gt;модерацией&lt;/div&gt;" style="edgeLabel;html=1;align=center;verticalAlign=middle;resizable=0;points=[];" connectable="0" vertex="1" parent="nVaTApkPD_jfvOoo125z-19">
          <mxGeometry x="-0.069" y="2" relative="1" as="geometry">
            <mxPoint x="16" y="-72" as="offset" />
          </mxGeometry>
        </mxCell>
        <mxCell id="nVaTApkPD_jfvOoo125z-2" value="На модерации" style="rounded=1;whiteSpace=wrap;html=1;" vertex="1" parent="1">
          <mxGeometry x="630" y="80" width="120" height="60" as="geometry" />
        </mxCell>
        <mxCell id="nVaTApkPD_jfvOoo125z-25" style="edgeStyle=orthogonalEdgeStyle;rounded=0;orthogonalLoop=1;jettySize=auto;html=1;exitX=1;exitY=0.25;exitDx=0;exitDy=0;entryX=0;entryY=0.75;entryDx=0;entryDy=0;" edge="1" parent="1" source="nVaTApkPD_jfvOoo125z-4" target="nVaTApkPD_jfvOoo125z-7">
          <mxGeometry relative="1" as="geometry" />
        </mxCell>
        <mxCell id="nVaTApkPD_jfvOoo125z-26" value="Активировать&lt;div&gt;объявление&lt;/div&gt;" style="edgeLabel;html=1;align=center;verticalAlign=middle;resizable=0;points=[];" connectable="0" vertex="1" parent="nVaTApkPD_jfvOoo125z-25">
          <mxGeometry x="-0.04" relative="1" as="geometry">
            <mxPoint y="-9" as="offset" />
          </mxGeometry>
        </mxCell>
        <mxCell id="nVaTApkPD_jfvOoo125z-4" value="Неактивно" style="rounded=1;whiteSpace=wrap;html=1;" vertex="1" parent="1">
          <mxGeometry x="100" y="190" width="120" height="60" as="geometry" />
        </mxCell>
        <mxCell id="nVaTApkPD_jfvOoo125z-21" style="edgeStyle=orthogonalEdgeStyle;rounded=0;orthogonalLoop=1;jettySize=auto;html=1;exitX=0;exitY=0.5;exitDx=0;exitDy=0;entryX=1;entryY=0.5;entryDx=0;entryDy=0;" edge="1" parent="1" source="nVaTApkPD_jfvOoo125z-5" target="nVaTApkPD_jfvOoo125z-6">
          <mxGeometry relative="1" as="geometry" />
        </mxCell>
        <mxCell id="nVaTApkPD_jfvOoo125z-23" value="Удалить&lt;div&gt;объявление&lt;/div&gt;" style="edgeLabel;html=1;align=center;verticalAlign=middle;resizable=0;points=[];" connectable="0" vertex="1" parent="nVaTApkPD_jfvOoo125z-21">
          <mxGeometry x="-0.0833" relative="1" as="geometry">
            <mxPoint as="offset" />
          </mxGeometry>
        </mxCell>
        <mxCell id="nVaTApkPD_jfvOoo125z-22" style="edgeStyle=orthogonalEdgeStyle;rounded=0;orthogonalLoop=1;jettySize=auto;html=1;exitX=0.5;exitY=0;exitDx=0;exitDy=0;entryX=1;entryY=0.75;entryDx=0;entryDy=0;" edge="1" parent="1" source="nVaTApkPD_jfvOoo125z-5" target="nVaTApkPD_jfvOoo125z-4">
          <mxGeometry relative="1" as="geometry" />
        </mxCell>
        <mxCell id="nVaTApkPD_jfvOoo125z-24" value="Деактивировать&lt;div&gt;объявление&lt;/div&gt;" style="edgeLabel;html=1;align=center;verticalAlign=middle;resizable=0;points=[];" connectable="0" vertex="1" parent="nVaTApkPD_jfvOoo125z-22">
          <mxGeometry x="0.4204" relative="1" as="geometry">
            <mxPoint x="9" as="offset" />
          </mxGeometry>
        </mxCell>
        <mxCell id="nVaTApkPD_jfvOoo125z-5" value="Активно и доступно пользователям" style="rounded=1;whiteSpace=wrap;html=1;" vertex="1" parent="1">
          <mxGeometry x="340" y="300" width="120" height="60" as="geometry" />
        </mxCell>
        <mxCell id="nVaTApkPD_jfvOoo125z-34" style="edgeStyle=orthogonalEdgeStyle;rounded=0;orthogonalLoop=1;jettySize=auto;html=1;exitX=0.5;exitY=1;exitDx=0;exitDy=0;entryX=0.5;entryY=0;entryDx=0;entryDy=0;" edge="1" parent="1" source="nVaTApkPD_jfvOoo125z-6" target="nVaTApkPD_jfvOoo125z-33">
          <mxGeometry relative="1" as="geometry" />
        </mxCell>
        <mxCell id="nVaTApkPD_jfvOoo125z-6" value="Удалено" style="rounded=1;whiteSpace=wrap;html=1;" vertex="1" parent="1">
          <mxGeometry x="100" y="300" width="120" height="60" as="geometry" />
        </mxCell>
        <mxCell id="nVaTApkPD_jfvOoo125z-10" style="edgeStyle=orthogonalEdgeStyle;rounded=0;orthogonalLoop=1;jettySize=auto;html=1;exitX=1;exitY=0.5;exitDx=0;exitDy=0;entryX=0;entryY=0.5;entryDx=0;entryDy=0;" edge="1" parent="1" source="nVaTApkPD_jfvOoo125z-7" target="nVaTApkPD_jfvOoo125z-2">
          <mxGeometry relative="1" as="geometry" />
        </mxCell>
        <mxCell id="nVaTApkPD_jfvOoo125z-11" value="&lt;div&gt;[if not rejected]&lt;/div&gt;Автоматически&lt;div&gt;отправлено на модерацию&lt;/div&gt;" style="edgeLabel;html=1;align=center;verticalAlign=middle;resizable=0;points=[];" connectable="0" vertex="1" parent="nVaTApkPD_jfvOoo125z-10">
          <mxGeometry x="-0.0364" y="2" relative="1" as="geometry">
            <mxPoint x="-2" y="22" as="offset" />
          </mxGeometry>
        </mxCell>
        <mxCell id="nVaTApkPD_jfvOoo125z-15" style="edgeStyle=orthogonalEdgeStyle;rounded=0;orthogonalLoop=1;jettySize=auto;html=1;exitX=0.5;exitY=1;exitDx=0;exitDy=0;entryX=0;entryY=0.5;entryDx=0;entryDy=0;" edge="1" parent="1" source="nVaTApkPD_jfvOoo125z-7" target="nVaTApkPD_jfvOoo125z-14">
          <mxGeometry relative="1" as="geometry" />
        </mxCell>
        <mxCell id="nVaTApkPD_jfvOoo125z-16" value="Внести изменения&lt;div&gt;в объявление&lt;/div&gt;" style="edgeLabel;html=1;align=center;verticalAlign=middle;resizable=0;points=[];" connectable="0" vertex="1" parent="nVaTApkPD_jfvOoo125z-15">
          <mxGeometry x="-0.5444" relative="1" as="geometry">
            <mxPoint as="offset" />
          </mxGeometry>
        </mxCell>
        <mxCell id="nVaTApkPD_jfvOoo125z-7" value="В разделе&lt;br&gt;&quot;Сдать жилье&quot;" style="rounded=1;whiteSpace=wrap;html=1;" vertex="1" parent="1">
          <mxGeometry x="340" y="80" width="120" height="60" as="geometry" />
        </mxCell>
        <mxCell id="nVaTApkPD_jfvOoo125z-13" value="Не одобрен модерацией" style="edgeLabel;html=1;align=center;verticalAlign=middle;resizable=0;points=[];" connectable="0" vertex="1" parent="1">
          <mxGeometry x="550" y="40" as="geometry" />
        </mxCell>
        <mxCell id="nVaTApkPD_jfvOoo125z-17" style="edgeStyle=orthogonalEdgeStyle;rounded=0;orthogonalLoop=1;jettySize=auto;html=1;exitX=1;exitY=0.5;exitDx=0;exitDy=0;entryX=0.5;entryY=1;entryDx=0;entryDy=0;" edge="1" parent="1" source="nVaTApkPD_jfvOoo125z-14" target="nVaTApkPD_jfvOoo125z-2">
          <mxGeometry relative="1" as="geometry" />
        </mxCell>
        <mxCell id="nVaTApkPD_jfvOoo125z-18" value="Применить изменения" style="edgeLabel;html=1;align=center;verticalAlign=middle;resizable=0;points=[];" connectable="0" vertex="1" parent="nVaTApkPD_jfvOoo125z-17">
          <mxGeometry x="0.3579" y="3" relative="1" as="geometry">
            <mxPoint x="3" y="-11" as="offset" />
          </mxGeometry>
        </mxCell>
        <mxCell id="nVaTApkPD_jfvOoo125z-14" value="В режиме редактирования" style="rounded=1;whiteSpace=wrap;html=1;" vertex="1" parent="1">
          <mxGeometry x="480" y="190" width="120" height="60" as="geometry" />
        </mxCell>
        <mxCell id="nVaTApkPD_jfvOoo125z-28" value="" style="ellipse;html=1;shape=startState;fillColor=#000000;strokeColor=#ff0000;" vertex="1" parent="1">
          <mxGeometry x="110" y="20" width="30" height="30" as="geometry" />
        </mxCell>
        <mxCell id="nVaTApkPD_jfvOoo125z-29" value="" style="edgeStyle=orthogonalEdgeStyle;html=1;verticalAlign=bottom;endArrow=open;endSize=8;strokeColor=#ff0000;rounded=0;" edge="1" parent="1" source="nVaTApkPD_jfvOoo125z-28">
          <mxGeometry relative="1" as="geometry">
            <mxPoint x="125" y="80" as="targetPoint" />
          </mxGeometry>
        </mxCell>
        <mxCell id="nVaTApkPD_jfvOoo125z-30" value="" style="ellipse;html=1;shape=endState;fillColor=#000000;strokeColor=#ff0000;" vertex="1" parent="1">
          <mxGeometry x="320" y="20" width="30" height="30" as="geometry" />
        </mxCell>
        <mxCell id="nVaTApkPD_jfvOoo125z-33" value="" style="ellipse;html=1;shape=endState;fillColor=#000000;strokeColor=#ff0000;" vertex="1" parent="1">
          <mxGeometry x="145" y="390" width="30" height="30" as="geometry" />
        </mxCell>
      </root>
    </mxGraphModel>
  </diagram>
</mxfile>
